<svg xmlns="http://www.w3.org/2000/svg" width="48" height="48" viewBox="0 0 48 48">
  <defs>
    <filter id="shadow" x="-25%" y="-20%" width="160%" height="165%">
      <feDropShadow dx="1.5" dy="2" stdDeviation="1.4" flood-color="#06142a" flood-opacity=".42"/>
    </filter>
  </defs>
  <path
    d="M14 31V7c0-2.8 1.8-5 4-5s4 2.2 4 5v14-3c0-2.2 1.8-4 4-4s4 1.8 4 4v5-2c0-2.2 1.8-4 4-4s4 1.8 4 4v5-2c0-2.2 1.8-4 4-4s4 1.8 4 4v11c0 7-5 12-12 12h-9c-5 0-9-3-12-7l-9-8c-1.7-1.5-1.8-4-.2-5.7 1.5-1.6 4-1.8 5.7-.3L14 31Z"
    fill="#fff"
    stroke="#102744"
    stroke-width="2.4"
    stroke-linecap="round"
    stroke-linejoin="round"
    filter="url(#shadow)"
  />
  <path d="M22 21v8M30 23v7M38 26v5" fill="none" stroke="#7faee8" stroke-width="1.5" stroke-linecap="round" opacity=".72"/>
</svg>
